<svg id="Слой_1" data-name="Слой 1" xmlns="http://www.w3.org/2000/svg" viewBox="0 0 1280 1024"><defs><style>.cls-1{fill:#165f8b;fill-rule:evenodd;}.cls-2{fill:#12205e;}</style></defs><title>building_icon</title><path class="cls-1" d="M717.1,451.57c-35.44-4.2-120.34-14.1-133.49-16.27-38.95-6.47-68.93-23-89.21-44.58V242.66c20.1-20.43,50.22-36.44,91.05-43.74,33.49-6,79.83-12.56,131.65-19.07Z"/><path class="cls-1" d="M1139,140.25c158.68,0,122.8,253.14,123.22,326.89-9.3,64-183.48,79.12-201.79,17.15-.37-1.24-120-15.44-196-22.8-11.24,47.88-128.34,42.26-133.94-8.3v-275C889,158.68,1091.45,140.25,1139,140.25Z"/><path class="cls-2" d="M390.6,334.53h-24.1l8.75-42.63H390.6V278.33h38.34V245.57H485.6V380.85H428.94V348.1H390.6V334.53Zm847.39,189c-41.21,19.8-111.19,25.4-164.93,6L1059.2,844c-9.67,3.81-15.17,8.2-15.17,12.87,0,14.5,52.82,26.25,118,26.25s118-11.75,118-26.25c0-5.78-8.45-11.14-22.73-15.48L1238,523.49Zm-375.52-30L872,798.41c15.33,4.36,24.58,10,24.58,16.15,0,13.82-46.56,25-104,25s-104-11.2-104-25c0-6.15,9.26-11.8,24.61-16.16l21-309.38c19.51,22.46,96.39,31.69,128.3,4.48Zm-514-159H312.58l8.75-42.63h35.94l-8.75,42.63Zm-53.92,0H258.65l8.75-42.63h35.94l-8.75,42.63Zm-53.92,0H217.59c-4.15,0-8.45,0-12.85-.06l8.75-42.57h35.93l-8.75,42.63Zm-53.84-.36c-11.55-.28-23.56-.69-35.69-1.25l8.26-40.2c12.3-.38,24.44-.61,36.08-.72l-8.65,42.18ZM133.35,332c-12-.72-23.89-1.61-35.39-2.68l6.93-33.73c11.92-.92,24.14-1.63,36.38-2.17L133.35,332Zm-53-4.48c-30.63-3.5-56.52-8.42-70-15.05,18-7.33,45.37-12.14,76.19-15.25Z"/></svg>